<?xml version="1.0" encoding="utf-8"?>
<!-- Generator: Adobe Illustrator 21.0.2, SVG Export Plug-In . SVG Version: 6.00 Build 0)  -->
<svg version="1.0" id="Layer_1" xmlns="http://www.w3.org/2000/svg" xmlns:xlink="http://www.w3.org/1999/xlink" x="0px" y="0px"
	 viewBox="0 0 175 19" style="enable-background:new 0 0 175 19;" xml:space="preserve">
<style type="text/css">
	.st0{fill:#034054;}
</style>
<path class="st0" d="M15.1,8.1C15.1,7.3,15,6.6,15,6c-0.1-1.5-0.1-2.7-0.1-3.5h0l-1,2.9c-0.4,1.1-0.8,2.3-1.3,3.4L9,18H8.2l-4-10.8
	L3.6,5.5c-0.4-1.1-0.7-2.1-0.9-3h0L2.5,6.1c-0.1,1.5-0.2,2.8-0.3,4.2L1.8,18H0.6L1.8,1.1h1.4l3.6,9.7c0.8,2,1.4,3.9,1.8,5.5h0.1
	c0.2-0.7,0.5-1.5,0.8-2.5l1.1-3l3.8-9.7h1.4L16.9,18h-1.2L15.1,8.1z M23.9,5.6h0.2c1.8,0,3,0.8,3.7,2.4c0.3,0.7,0.4,1.5,0.4,2.4v4.8
	c0,1.2,0.1,2.2,0.2,2.9l0,0h-1c-0.1,0-0.1-0.2-0.1-0.6l-0.1-1.1H27c-0.5,0.7-0.9,1.1-1.4,1.4c-0.7,0.5-1.5,0.7-2.5,0.7
	c-1.7,0-2.8-0.8-3.4-2.3c-0.1-0.4-0.1-0.7-0.1-1v-0.2c0-1.5,0.8-2.7,2.4-3.5c0.9-0.4,1.5-0.6,1.9-0.6c0.8-0.1,1.4-0.2,1.9-0.2h0v1
	l0,0c-1.2,0-2.4,0.3-3.5,0.8c-0.9,0.6-1.4,1.4-1.4,2.3v0.2c0,1,0.4,1.7,1.3,2.2c0.4,0.2,0.7,0.3,1.1,0.3c1.4,0,2.5-0.6,3.3-1.8
	c0.3-0.5,0.5-1,0.5-1.5v-3.6c0-2-0.6-3.2-1.8-3.6c-0.4-0.1-0.8-0.2-1.3-0.2h-0.1c-1.1,0-2.2,0.3-3,0.9c0,0-0.2-0.3-0.4-0.9
	C21.5,5.9,22.7,5.6,23.9,5.6z M31.6,9.6c0-1.4,0-2.6-0.1-3.6h1.1l0.1,2.4h0.1c0.6-1.8,1.8-2.7,3.4-2.7c0.1,0,0.2,0,0.3,0
	c0.1,0,0.2,0,0.3,0v1.1c-0.1,0-0.2,0-0.3,0h-0.3c-1.7,0-2.8,1.1-3.1,3.4c-0.1,0.3-0.1,0.7-0.1,1.1V18h-1.2V9.6z M40.2,11.8
	L40.2,11.8c0.4-0.4,0.8-0.9,1.2-1.3L45.7,6h1.5l-4.9,5l5.5,7h-1.5l-4.9-6.3L40.2,13v5H39V0.2h1.2V11.8z M54,5.6h0.2c2,0,3.4,1,4.2,3
	c0.3,0.8,0.5,1.7,0.5,2.5c0,0.4-0.1,0.7-0.1,0.7h-7.7l0,0v-0.1c0-0.5,0.1-0.8,0.1-0.8h6.4v0c0-1.4-0.4-2.4-1.1-3.3
	c-0.6-0.6-1.5-1-2.5-1c-1.7,0-2.9,0.9-3.7,2.7c-0.3,0.8-0.5,1.7-0.5,2.5v0.4c0,1.7,0.5,3,1.7,4c0.8,0.7,1.8,1,2.9,1h0.2
	c1.3,0,2.3-0.2,3.2-0.7c0,0,0.1,0.3,0.3,1c-1,0.5-2.3,0.8-3.8,0.8c-2,0-3.5-0.8-4.6-2.3c-0.7-1.1-1.1-2.3-1.1-3.7V12
	c0-1.9,0.6-3.5,1.7-4.8C51.4,6.1,52.6,5.6,54,5.6z M63.2,3.3V6h3.4v1h-3.4v7.8c0,1.6,0.6,2.5,1.8,2.5c0.6,0,1-0.1,1.4-0.2l0.2,0.9
	c-0.5,0.2-1,0.3-1.7,0.3c-0.9,0-1.6-0.3-2-0.8c-0.5-0.6-0.8-1.5-0.8-2.9V7h-2V6h2V3.8L63.2,3.3z M129,18.3c-0.7,0-1-0.4-1-1.1
	c0-0.8,0.3-1.1,1-1.1c0.7,0,1,0.4,1,1.1S129.7,18.3,129,18.3L129,18.3z M141.3,17.5c-0.1,0-0.2,0.1-0.2,0.1c-0.1,0-0.2,0.1-0.3,0.1
	c-0.3,0.1-0.5,0.2-0.8,0.3c-0.7,0.2-1.5,0.3-2.2,0.3c-1.7,0-3.1-0.6-4.2-1.7c-1.1-1.1-1.6-2.6-1.6-4.4c0-1.9,0.6-3.4,1.8-4.6
	c1.1-1.2,2.6-1.8,4.4-1.8c0.7,0,1.3,0.1,1.9,0.3c0.5,0.2,0.9,0.3,1.2,0.5l-0.4,1c-0.3-0.2-0.7-0.4-1.1-0.5c-0.5-0.2-1.1-0.2-1.7-0.2
	c-1.6,0-2.8,0.5-3.6,1.6c-0.8,1-1.2,2.2-1.2,3.7c0,1.6,0.4,2.8,1.3,3.8c0.9,0.9,2,1.4,3.4,1.4c0.6,0,1.2-0.1,1.8-0.3
	c0.2-0.1,0.4-0.1,0.6-0.2l0.3-0.1l0.3-0.1L141.3,17.5z M152.6,16.7c-1.1,1.1-2.4,1.6-4,1.6c-1.6,0-3-0.6-4-1.7
	c-1-1.1-1.6-2.6-1.6-4.5c0-1.9,0.5-3.4,1.6-4.6c0.9-1,2.1-1.6,3.4-1.8v1c-1.1,0.2-2,0.8-2.8,1.7c-0.7,1-1.1,2.2-1.1,3.6
	c0,1.3,0.3,2.4,1,3.4c0.8,1.2,1.9,1.8,3.4,1.8c1.4,0,2.6-0.6,3.4-1.7c0.7-1,1.1-2.2,1.1-3.6c0-1.4-0.4-2.6-1.1-3.6
	c-0.7-1-1.6-1.5-2.8-1.7v-1c1.5,0.1,2.7,0.7,3.6,1.8c1,1.1,1.4,2.6,1.4,4.4C154.3,13.9,153.7,15.5,152.6,16.7z M157.8,8.9
	c0-1.1,0-2-0.1-2.9h1.1l0.1,2.1h0c0.4-0.8,0.9-1.3,1.5-1.7c0.7-0.5,1.5-0.7,2.4-0.7c1.7,0,2.8,0.9,3.4,2.6h0.1
	c0.3-0.6,0.7-1.2,1.2-1.6c0.8-0.6,1.8-1,2.9-1c0.4,0,0.7,0.1,1.1,0.2c0.5,0.2,0.9,0.4,1.3,0.7c0.5,0.4,0.8,0.9,1.1,1.6
	c0.3,0.8,0.4,1.7,0.4,2.7V18h-1.2v-7c0-2.9-1-4.3-3.1-4.3c-0.7,0-1.4,0.2-2,0.7c-0.5,0.4-0.9,1-1.2,1.7l-0.1,0.5
	c-0.1,0.2-0.1,0.5-0.1,0.7V18h-1.2v-7.5c0-1.1-0.3-2-0.8-2.7c-0.5-0.7-1.3-1.1-2.2-1.1c-0.8,0-1.5,0.3-2.1,0.8
	c-0.6,0.5-1,1.1-1.2,1.9c-0.1,0.4-0.2,0.8-0.2,1.2V18h-1.2V8.9z"/>
<path class="st0" d="M68.8,1.1h4.5v13.1h6.5V18h-11V1.1z M81.8,18V5.7h4.5V18H81.8z M84.1,4.4c-1.5,0-2.3-0.7-2.3-2.1
	c0-1.4,0.8-2.2,2.3-2.2c1.5,0,2.3,0.7,2.3,2.2C86.4,3.7,85.6,4.4,84.1,4.4L84.1,4.4z M97,0h4.5l0,0v14.2c0,1.4,0,2.7,0.1,3.8l0,0
	h-4.3l-0.1,0v-4.4l0-1.6c0-1-0.2-1.8-0.7-2.5c-0.4-0.5-0.9-0.8-1.4-0.8c-1.1,0-1.8,0.6-2.1,1.8c-0.1,0.4-0.1,0.8-0.1,1.2
	c0,1.6,0.5,2.5,1.6,2.9c0.2,0.1,0.4,0.1,0.6,0.1h0.2c0.2,0,0.5-0.1,0.8-0.2v2.9c-0.6,0.6-1.5,1-2.6,1c-1.4,0-2.7-0.7-3.8-2.1
	c-0.9-1.3-1.3-2.8-1.3-4.5v-0.4c0-1.9,0.6-3.5,1.8-4.8c0.9-0.9,2-1.3,3.3-1.3c1.5,0,2.7,0.5,3.5,1.5h0L97,0L97,0z M109.7,5.4h0.3
	c2.1,0,3.7,0.9,4.8,2.6c0.6,1.1,0.9,2.3,0.9,3.8c0,0.5-0.1,1.1-0.2,1.7h0H109c-0.3-0.5-0.4-1.1-0.4-1.9c0-0.5,0.1-0.9,0.2-1.3h2.6
	c0-0.8-0.3-1.4-0.9-1.8c-0.3-0.2-0.5-0.2-0.8-0.2h-0.2c-0.9,0-1.6,0.6-2.1,1.9c-0.2,0.5-0.3,1-0.3,1.5v0c0,1,0.3,1.8,0.8,2.5
	c0.6,0.6,1.4,0.9,2.6,0.9c1,0,2.3-0.2,3.8-0.7l0.6,3c-1.3,0.5-2.8,0.8-4.7,0.8c-3.1,0-5.2-1.2-6.3-3.5c-0.3-0.9-0.5-1.8-0.5-2.8
	v-0.2c0-1.7,0.6-3.2,1.8-4.6C106.4,6,107.9,5.4,109.7,5.4z M117.9,9.9c0-1.9,0-3.2-0.1-4.2h3.8l0.2,2.2h0.1c0.3-0.9,0.8-1.5,1.5-2
	c0.6-0.4,1.2-0.5,1.8-0.5c0.4,0,0.7,0,0.9,0.1v4.2c-0.4-0.1-0.8-0.1-1.1-0.1c-1.4,0-2.2,0.5-2.5,1.5c0,0.3,0,0.5,0,0.8V18h-4.5V9.9z
	"/>
</svg>
